<svg enable-background="new 0 0 512 512" viewBox="0 0 512 512" xmlns="http://www.w3.org/2000/svg"><path d="m508.985 340.349c0 91.045-113.521 164.852-253.556 164.852s-253.555-73.806-253.555-164.852 113.521-164.852 253.556-164.852 253.555 73.807 253.555 164.852z" fill="#bfbcaf"/><path d="m508.985 317.404c0 91.045-113.521 164.852-253.556 164.852s-253.555-73.806-253.555-164.852 113.521-164.852 253.556-164.852 253.555 73.807 253.555 164.852z" fill="#e3e8e7"/><path d="m461.982 181.202v141.751h-.395c-6.505 69.956-95.81 125.385-205.043 125.385s-198.538-55.43-205.043-125.386h-.395v-141.75z" fill="#ff6e83"/><path d="m461.867 181.202c0 72.104.115 141.751-31.488 141.751s-19.797-20.364-48.481-13.664c-28.685 6.701-21.701 70.13-62.199 70.13-40.136 0-26.373-38.367-63.269-39.053-36.765.686-15.713 39.053-55.849 39.053-40.498 0-40.937-63.429-69.622-70.13s-16.879 13.664-48.481 13.664c-31.603 0-31.488-69.647-31.488-141.751 0-51.405 130.507-2.535 205.438 29.76 74.932-32.295 205.439-81.165 205.439-29.76z" fill="#ffa9ba"/><path d="m461.867 181.202c0 73.768-91.978 133.568-205.438 133.568s-205.438-59.8-205.438-133.568 91.978-133.568 205.438-133.568 205.438 59.8 205.438 133.568z" fill="#ffbdcd"/><path d="m255.067 137.466c-2.477 0-4.485-2.008-4.485-4.485v-49.335c0-2.477 2.008-4.485 4.485-4.485s4.485 2.008 4.485 4.485v49.335c0 2.477-2.008 4.485-4.485 4.485zm-116.352-48.875v-30.293c0-2.477-2.008-4.485-4.485-4.485s-4.485 2.008-4.485 4.485v30.293c0 2.477 2.008 4.485 4.485 4.485s4.485-2.008 4.485-4.485zm240.212 0v-30.293c0-2.477-2.009-4.485-4.485-4.485s-4.485 2.008-4.485 4.485v30.293c0 2.477 2.009 4.485 4.485 4.485s4.485-2.008 4.485-4.485z" fill="#ebf2f2"/><path d="m255.067 237.202c-6.903 0-12.5-5.596-12.5-12.5v-98.132c0-6.904 5.597-12.5 12.5-12.5 6.904 0 12.5 5.596 12.5 12.5v98.132c-.001 6.904-5.596 12.5-12.5 12.5zm-109.034-56.89v-90.822c0-6.903-5.597-12.5-12.5-12.5s-12.5 5.597-12.5 12.5v90.821c0 6.903 5.597 12.5 12.5 12.5s12.5-5.596 12.5-12.499zm240.908 0v-90.822c0-6.903-5.597-12.5-12.5-12.5s-12.5 5.597-12.5 12.5v90.821c0 6.903 5.597 12.5 12.5 12.5s12.5-5.596 12.5-12.499z" fill="#d6e5e5"/><path d="m115.415 51.328s-.091-.742-.063-2.027c.006-.16.012-.329.019-.507.048-.417.107-.912.185-1.396.157-.981.342-2.047.615-3.165.131-.543.284-1.169.438-1.682.144-.422.31-.852.476-1.293.33-.883.708-1.8 1.13-2.739.418-.84.895-1.662 1.393-2.521.248-.413.506-.894.771-1.258.262-.362.528-.729.797-1.101.269-.371.544-.745.836-1.113l.434-.55.412-.467c.544-.632 1.146-1.243 1.734-1.873.536-.531 1.125-1.039 1.701-1.565l.436-.393c.133-.116.269-.222.408-.331l.834-.656.845-.662.798-.57 1.588-1.132c1.003-.694 2.005-1.388 2.992-2.07 1.024-.692 1.845-1.369 2.829-2.086.438-.375.869-.744 1.291-1.105.437-.372.919-.736 1.28-1.137.407-.403.802-.796 1.185-1.175.386-.393.813-.773 1.123-1.18.717-.835 1.375-1.601 1.958-2.279.562-.755 1.053-1.413 1.457-1.955.841-1.125 1.386-1.819 1.386-1.819l.257-.327c1.254-1.599 3.567-1.878 5.167-.624.344.27.634.601.853.951 0 0 .48.771 1.207 2.211.333.72.814 1.612 1.216 2.667.347 1.057.762 2.286 1.142 3.669.393 1.382.561 2.909.805 4.584.202 1.667.184 3.428.181 5.314-.049.915-.145 1.842-.234 2.801-.049.477-.091.967-.154 1.448-.081.465-.162.932-.244 1.401-.175.93-.33 1.932-.557 2.846-.229.911-.46 1.825-.69 2.739-.247.93-.501 1.715-.756 2.583l-.385 1.269-.368 1.142c-.241.734-.48 1.462-.716 2.181-.214.648-.405 1.301-.636 1.911-.152.528-.278 1.056-.447 1.54l-.119.364c-.027.108-.035.197-.054.295-.029.193-.071.374-.115.55-.043.175-.086.347-.129.517-.036.168-.009.247-.024.365-.007.214-.034.422-.071.582.054.098.08.175.075.237-.001.031.001.062-.013.088.028-.055.1-.226.131-.334.083-.245.09-.493.083-.718-.002-.106-.026-.239-.048-.309-.019.176-.037.344-.054.504-.158 1.275-.355 1.996-.355 1.996-2.689 9.863-12.866 15.679-22.729 12.99-7.469-2.037-12.617-8.366-13.508-15.601zm240.209.026c.892 7.236 6.04 13.565 13.508 15.601 9.863 2.689 20.04-3.126 22.729-12.99 0 0 .197-.721.355-1.996.017-.16.035-.328.054-.504.022.07.046.203.048.309.007.225 0 .474-.083.718-.031.108-.104.278-.131.334.014-.025.012-.056.013-.088.005-.062-.021-.138-.075-.237.037-.16.065-.369.071-.582.016-.118-.012-.197.024-.365.042-.17.085-.342.129-.517.044-.176.086-.357.115-.55.019-.098.027-.187.054-.295l.119-.364c.169-.484.295-1.012.447-1.54.231-.61.423-1.262.636-1.911.236-.719.475-1.447.716-2.181l.368-1.142.385-1.269c.256-.868.51-1.654.757-2.583.23-.914.46-1.829.69-2.739.227-.914.382-1.916.557-2.846.082-.469.163-.936.244-1.401.062-.481.105-.972.154-1.448.088-.959.185-1.887.234-2.801.003-1.885.021-3.646-.181-5.314-.244-1.674-.412-3.201-.805-4.584-.379-1.383-.795-2.613-1.142-3.669-.402-1.055-.883-1.947-1.216-2.667-.727-1.44-1.207-2.211-1.207-2.211-.22-.35-.509-.682-.853-.951-1.599-1.254-3.912-.975-5.167.624l-.257.327s-.545.694-1.386 1.819c-.404.542-.894 1.2-1.457 1.955-.583.679-1.241 1.444-1.958 2.279-.31.407-.737.788-1.123 1.18-.383.379-.778.772-1.185 1.175-.361.401-.843.766-1.28 1.137-.422.361-.853.73-1.291 1.105-.984.717-1.805 1.394-2.829 2.086-.987.683-1.989 1.377-2.992 2.07l-1.588 1.132-.798.57-.846.662-.834.656c-.139.109-.276.215-.408.331l-.436.393c-.576.526-1.165 1.033-1.701 1.565-.589.63-1.191 1.242-1.734 1.873l-.412.467-.434.55c-.292.368-.567.742-.836 1.113-.269.372-.535.739-.797 1.101-.266.365-.523.845-.771 1.258-.499.859-.975 1.681-1.393 2.521-.421.939-.8 1.856-1.13 2.739-.166.441-.332.871-.476 1.293-.154.512-.306 1.138-.438 1.682-.273 1.118-.458 2.184-.615 3.165-.079.484-.138.979-.185 1.396-.007.177-.013.346-.019.507-.027 1.285.063 2.027.063 2.027z" fill="#ffbd03"/><path d="m235.511 85.091s-.075-.919-.037-2.516l.006-.152.033-.307c.026-.217.052-.439.079-.667.058-.455.117-.933.198-1.428.16-.991.341-2.065.597-3.193.067-.325.115-.436.175-.664.058-.201.117-.405.176-.613.128-.412.259-.836.394-1.27.271-.85.571-1.833.921-2.609.333-.829.712-1.681 1.105-2.559.383-.89.822-1.619 1.259-2.466.892-1.712 1.849-3.168 2.893-4.78 1.011-1.461 2.122-3.026 3.227-4.406.541-.707 1.14-1.447 1.696-2.119.562-.685 1.126-1.372 1.69-2.059 1.116-1.33 2.232-2.66 3.33-3.969.53-.646 1.065-1.29 1.618-1.926.517-.635 1.027-1.262 1.529-1.879 1.058-1.247 1.95-2.449 2.884-3.629.484-.59.898-1.164 1.299-1.732.421-.575.827-1.13 1.217-1.663.794-1.081 1.432-2.1 2.058-3.037.648-.935 1.134-1.773 1.545-2.482.851-1.418 1.403-2.286 1.403-2.286l.204-.321c1.034-1.627 3.191-2.108 4.818-1.074.554.352.981.848 1.255 1.395 0 0 .473.955 1.188 2.727.328.884.815 1.99 1.119 3.256.167.643.345 1.328.532 2.05.173.727.413 1.518.514 2.31.247 1.589.567 3.4.688 5.248.122 1.848.251 3.867.192 5.856-.007 1.006-.038 2.049-.087 3.074-.055 1.016-.135 2.044-.226 3.083-.158 2.086-.452 4.102-.719 6.139-.318 1.972-.611 3.984-.965 5.805-.353 1.902-.677 3.568-1.054 5.234-.291 1.538-.695 3.097-.925 4.314-.128.615-.301 1.285-.397 1.791-.093.516-.183 1.01-.3 1.473-.137.505-.131.803-.209 1.15-.031.166-.056.33-.095.484l-.058.228c-.01.05-.061.206-.034.157.052-.035.042-.086.026-.131-.007-.023-.032-.047-.055-.068l-.039-.032c-.007.001-.015-.025-.021 0l-.015.151c-.181 1.588-.381 2.489-.381 2.489l-.024.109c-2.193 9.901-11.998 16.149-21.899 13.956-8.051-1.785-13.685-8.63-14.328-16.442z" fill="#ffd366"/></svg>